<mxfile host="app.diagrams.net" modified="2020-09-03T23:37:22.985Z" agent="5.0 (X11; Linux x86_64) AppleWebKit/537.36 (KHTML, like Gecko) Chrome/85.0.4183.83 Safari/537.36" etag="8QievEiS9ieowwqNLFBn" version="13.6.6" type="github">
  <diagram id="vIFK6HDbpu7tWd20EpIo" name="Page-1">
    <mxGraphModel dx="1371" dy="722" grid="1" gridSize="10" guides="1" tooltips="1" connect="1" arrows="1" fold="1" page="1" pageScale="1" pageWidth="827" pageHeight="1169" math="0" shadow="0">
      <root>
        <mxCell id="0" />
        <mxCell id="1" parent="0" />
        <mxCell id="Lqbi2-liScFzQlntMzLC-9" style="edgeStyle=orthogonalEdgeStyle;rounded=0;orthogonalLoop=1;jettySize=auto;html=1;exitX=0.5;exitY=1;exitDx=0;exitDy=0;entryX=0.5;entryY=0;entryDx=0;entryDy=0;startArrow=classic;startFill=1;" edge="1" parent="1" source="Lqbi2-liScFzQlntMzLC-2" target="Lqbi2-liScFzQlntMzLC-3">
          <mxGeometry relative="1" as="geometry" />
        </mxCell>
        <mxCell id="Lqbi2-liScFzQlntMzLC-2" value="Motor Driver" style="rounded=1;whiteSpace=wrap;html=1;" vertex="1" parent="1">
          <mxGeometry x="150" y="520" width="120" height="60" as="geometry" />
        </mxCell>
        <mxCell id="Lqbi2-liScFzQlntMzLC-3" value="Drive Motors" style="rounded=1;whiteSpace=wrap;html=1;" vertex="1" parent="1">
          <mxGeometry x="150" y="620" width="120" height="60" as="geometry" />
        </mxCell>
        <mxCell id="Lqbi2-liScFzQlntMzLC-8" style="edgeStyle=orthogonalEdgeStyle;rounded=0;orthogonalLoop=1;jettySize=auto;html=1;entryX=0.558;entryY=0;entryDx=0;entryDy=0;entryPerimeter=0;startArrow=classic;startFill=1;" edge="1" parent="1" source="Lqbi2-liScFzQlntMzLC-4" target="Lqbi2-liScFzQlntMzLC-2">
          <mxGeometry relative="1" as="geometry">
            <Array as="points">
              <mxPoint x="295" y="490" />
              <mxPoint x="217" y="490" />
            </Array>
          </mxGeometry>
        </mxCell>
        <mxCell id="Lqbi2-liScFzQlntMzLC-21" style="edgeStyle=orthogonalEdgeStyle;rounded=0;orthogonalLoop=1;jettySize=auto;html=1;exitX=0.25;exitY=1;exitDx=0;exitDy=0;entryX=1;entryY=0.5;entryDx=0;entryDy=0;startArrow=classic;startFill=1;" edge="1" parent="1" source="Lqbi2-liScFzQlntMzLC-4" target="Lqbi2-liScFzQlntMzLC-19">
          <mxGeometry relative="1" as="geometry" />
        </mxCell>
        <mxCell id="Lqbi2-liScFzQlntMzLC-4" value="Arduino as ROS Node&lt;br&gt;&lt;font style=&quot;font-size: 8px&quot;&gt;http://wiki.ros.org/rosserial_arduino&lt;br&gt;&lt;/font&gt;" style="rounded=1;whiteSpace=wrap;html=1;" vertex="1" parent="1">
          <mxGeometry x="220" y="390" width="150" height="50" as="geometry" />
        </mxCell>
        <mxCell id="Lqbi2-liScFzQlntMzLC-7" style="edgeStyle=orthogonalEdgeStyle;rounded=0;orthogonalLoop=1;jettySize=auto;html=1;exitX=0.5;exitY=1;exitDx=0;exitDy=0;entryX=0.5;entryY=0;entryDx=0;entryDy=0;startArrow=classic;startFill=1;" edge="1" parent="1" source="Lqbi2-liScFzQlntMzLC-5" target="Lqbi2-liScFzQlntMzLC-4">
          <mxGeometry relative="1" as="geometry" />
        </mxCell>
        <mxCell id="Lqbi2-liScFzQlntMzLC-5" value="" style="rounded=1;whiteSpace=wrap;html=1;align=center;" vertex="1" parent="1">
          <mxGeometry x="160" y="70" width="390" height="220" as="geometry" />
        </mxCell>
        <mxCell id="Lqbi2-liScFzQlntMzLC-15" style="edgeStyle=orthogonalEdgeStyle;rounded=0;orthogonalLoop=1;jettySize=auto;html=1;exitX=1;exitY=0.5;exitDx=0;exitDy=0;entryX=0;entryY=0.5;entryDx=0;entryDy=0;startArrow=classic;startFill=1;" edge="1" parent="1" source="Lqbi2-liScFzQlntMzLC-6" target="Lqbi2-liScFzQlntMzLC-4">
          <mxGeometry relative="1" as="geometry">
            <Array as="points">
              <mxPoint x="190" y="345" />
              <mxPoint x="190" y="415" />
            </Array>
          </mxGeometry>
        </mxCell>
        <mxCell id="Lqbi2-liScFzQlntMzLC-20" style="edgeStyle=orthogonalEdgeStyle;rounded=0;orthogonalLoop=1;jettySize=auto;html=1;exitX=0.5;exitY=1;exitDx=0;exitDy=0;entryX=0.5;entryY=0;entryDx=0;entryDy=0;startArrow=classic;startFill=1;" edge="1" parent="1" source="Lqbi2-liScFzQlntMzLC-6" target="Lqbi2-liScFzQlntMzLC-16">
          <mxGeometry relative="1" as="geometry" />
        </mxCell>
        <mxCell id="Lqbi2-liScFzQlntMzLC-6" value="E Stop" style="rounded=1;whiteSpace=wrap;html=1;" vertex="1" parent="1">
          <mxGeometry x="10" y="330" width="70" height="30" as="geometry" />
        </mxCell>
        <mxCell id="Lqbi2-liScFzQlntMzLC-14" value="" style="edgeStyle=orthogonalEdgeStyle;rounded=0;orthogonalLoop=1;jettySize=auto;html=1;startArrow=classic;startFill=1;" edge="1" parent="1" source="Lqbi2-liScFzQlntMzLC-11" target="Lqbi2-liScFzQlntMzLC-12">
          <mxGeometry relative="1" as="geometry" />
        </mxCell>
        <mxCell id="Lqbi2-liScFzQlntMzLC-11" value="Motor Driver" style="rounded=1;whiteSpace=wrap;html=1;" vertex="1" parent="1">
          <mxGeometry x="10" y="520" width="120" height="60" as="geometry" />
        </mxCell>
        <mxCell id="Lqbi2-liScFzQlntMzLC-12" value="Blade Motor" style="rounded=1;whiteSpace=wrap;html=1;" vertex="1" parent="1">
          <mxGeometry x="10" y="620" width="120" height="60" as="geometry" />
        </mxCell>
        <mxCell id="Lqbi2-liScFzQlntMzLC-23" value="" style="edgeStyle=orthogonalEdgeStyle;rounded=0;orthogonalLoop=1;jettySize=auto;html=1;startArrow=classic;startFill=1;entryX=0.25;entryY=0;entryDx=0;entryDy=0;" edge="1" parent="1" source="Lqbi2-liScFzQlntMzLC-16" target="Lqbi2-liScFzQlntMzLC-11">
          <mxGeometry relative="1" as="geometry" />
        </mxCell>
        <mxCell id="Lqbi2-liScFzQlntMzLC-16" value="Relay" style="rounded=1;whiteSpace=wrap;html=1;" vertex="1" parent="1">
          <mxGeometry x="10" y="450" width="70" height="30" as="geometry" />
        </mxCell>
        <mxCell id="Lqbi2-liScFzQlntMzLC-17" value="&lt;font style=&quot;font-size: 18px&quot;&gt;Software Flow&lt;/font&gt;" style="text;html=1;strokeColor=none;fillColor=none;align=center;verticalAlign=middle;whiteSpace=wrap;rounded=0;" vertex="1" parent="1">
          <mxGeometry x="10" y="20" width="175" height="30" as="geometry" />
        </mxCell>
        <mxCell id="Lqbi2-liScFzQlntMzLC-22" style="edgeStyle=orthogonalEdgeStyle;rounded=0;orthogonalLoop=1;jettySize=auto;html=1;exitX=0.5;exitY=1;exitDx=0;exitDy=0;entryX=0.75;entryY=0;entryDx=0;entryDy=0;startArrow=classic;startFill=1;" edge="1" parent="1" source="Lqbi2-liScFzQlntMzLC-19" target="Lqbi2-liScFzQlntMzLC-11">
          <mxGeometry relative="1" as="geometry" />
        </mxCell>
        <mxCell id="Lqbi2-liScFzQlntMzLC-19" value="Relay" style="rounded=1;whiteSpace=wrap;html=1;" vertex="1" parent="1">
          <mxGeometry x="110" y="450" width="70" height="30" as="geometry" />
        </mxCell>
      </root>
    </mxGraphModel>
  </diagram>
</mxfile>
